<svg width="62" height="62" viewBox="0 0 62 62" fill="none" xmlns="http://www.w3.org/2000/svg">
<rect x="1" y="1" width="59.9991" height="59.9991" rx="14.2727" fill="#F8F8F8"/>
<rect x="1" y="1" width="59.9991" height="59.9991" rx="14.2727" stroke="white" stroke-width="2"/>
<path d="M32.7089 22.1217L21.5995 33.8807C21.1801 34.3272 20.7741 35.2067 20.6929 35.8157L20.1923 40.1999C20.0164 41.7831 21.153 42.8656 22.7227 42.595L27.0798 41.8507C27.6887 41.7425 28.5412 41.2959 28.9607 40.8359L40.0701 29.0769C41.9916 27.0472 42.8576 24.7333 39.8671 21.9052C36.8902 19.1042 34.6304 20.092 32.7089 22.1217Z" stroke="#247CFF" stroke-miterlimit="10" stroke-linecap="round" stroke-linejoin="round"/>
<path d="M30.8568 24.0872C31.4386 27.8219 34.4697 30.6771 38.2315 31.056" stroke="#247CFF" stroke-miterlimit="10" stroke-linecap="round" stroke-linejoin="round"/>
</svg>
