<svg width="80" height="80" viewBox="0 0 80 80" fill="none" xmlns="http://www.w3.org/2000/svg">
<rect width="80" height="80" rx="16" fill="#E9FAEF"/>
<path d="M30 40C22 40 22 43.58 22 48V50C22 55.52 22 60 32 60H48C56 60 58 55.52 58 50V48C58 43.58 58 40 50 40C48 40 47.44 40.42 46.4 41.2L44.36 43.36C42 45.88 38 45.88 35.62 43.36L33.6 41.2C32.56 40.42 32 40 30 40Z" stroke="#22C55E" stroke-width="1.5" stroke-miterlimit="10" stroke-linecap="round" stroke-linejoin="round"/>
<path d="M54 40V28C54 23.58 54 20 46 20H34C26 20 26 23.58 26 28V40" stroke="#22C55E" stroke-width="1.5" stroke-miterlimit="10" stroke-linecap="round" stroke-linejoin="round"/>
<path d="M37.1 34.4609H43.76" stroke="#22C55E" stroke-width="1.5" stroke-linecap="round" stroke-linejoin="round"/>
<path d="M35.44 28.4609H45.44" stroke="#22C55E" stroke-width="1.5" stroke-linecap="round" stroke-linejoin="round"/>
</svg>
