<svg width="284" height="77" viewBox="0 0 284 77" fill="none" xmlns="http://www.w3.org/2000/svg">
<g clip-path="url(#clip0_1_779)">
<path d="M71.2257 23.5336H53.0188V5.05274C53.0188 2.26858 50.7644 0 47.9721 0H28.0486C25.2678 0 23.002 2.25712 23.002 5.05274V14.9863H30.7722V7.77961H45.2371V45.2684H38.8515V53.048H53.0073V31.3132H68.4907V45.2684H60.7433V53.048H71.2142C73.9951 53.048 76.2609 50.7909 76.2609 47.9953V28.5863C76.2609 25.8022 74.0065 23.5336 71.2257 23.5336Z" fill="#247CFF"/>
<path d="M45.2484 68.4811H30.7835V31.3132H37.2836V23.5336H23.0133V45.2569H7.77027V31.3132H15.3918V23.5336H5.04667C2.25441 23.5336 0 25.8021 0 28.5863V47.9952C0 50.7794 2.25441 53.048 5.04667 53.048H23.0133V71.2195C23.0133 74.0036 25.2677 76.2722 28.0599 76.2722H47.9834C50.7642 76.2722 53.0301 74.0151 53.0301 71.2195V60.7703H45.2598V68.4811H45.2484Z" fill="#247CFF"/>
</g>
<path d="M104.712 21.2259C108.44 21.2259 111.711 21.9546 114.524 23.412C117.371 24.8695 119.557 26.9539 121.082 29.6654C122.641 32.343 123.421 35.4613 123.421 39.0201C123.421 42.5789 122.641 45.6971 121.082 48.3747C119.557 51.0185 117.371 53.069 114.524 54.5264C111.711 55.9839 108.44 56.7126 104.712 56.7126H92.3065V21.2259H104.712ZM104.457 50.6626C108.186 50.6626 111.067 49.6458 113.1 47.6121C115.134 45.5785 116.151 42.7145 116.151 39.0201C116.151 35.3257 115.134 32.4447 113.1 30.3772C111.067 28.2758 108.186 27.2251 104.457 27.2251H99.4242V50.6626H104.457Z" fill="#242424"/>
<path d="M141.256 57.1702C138.544 57.1702 136.104 56.577 133.935 55.3907C131.765 54.1706 130.054 52.4589 128.8 50.2558C127.58 48.0528 126.969 45.5107 126.969 42.6298C126.969 39.7488 127.596 37.2068 128.851 35.0037C130.138 32.8006 131.884 31.1059 134.087 29.9196C136.29 28.6995 138.747 28.0894 141.459 28.0894C144.17 28.0894 146.628 28.6995 148.831 29.9196C151.034 31.1059 152.763 32.8006 154.017 35.0037C155.305 37.2068 155.949 39.7488 155.949 42.6298C155.949 45.5107 155.288 48.0528 153.966 50.2558C152.678 52.4589 150.915 54.1706 148.678 55.3907C146.475 56.577 144.001 57.1702 141.256 57.1702ZM141.256 50.9676C142.544 50.9676 143.747 50.6626 144.865 50.0525C146.018 49.4085 146.933 48.4595 147.611 47.2054C148.289 45.9513 148.627 44.4261 148.627 42.6298C148.627 39.9522 147.916 37.9016 146.492 36.4781C145.103 35.0206 143.391 34.2919 141.357 34.2919C139.324 34.2919 137.612 35.0206 136.222 36.4781C134.867 37.9016 134.189 39.9522 134.189 42.6298C134.189 45.3074 134.85 47.3749 136.172 48.8323C137.527 50.2558 139.222 50.9676 141.256 50.9676Z" fill="#242424"/>
<path d="M159.339 42.6298C159.339 39.7149 159.932 37.1729 161.119 35.0037C162.305 32.8006 163.949 31.1059 166.05 29.9196C168.152 28.6995 170.558 28.0894 173.27 28.0894C176.761 28.0894 179.642 28.9706 181.913 30.7331C184.217 32.4617 185.759 34.902 186.539 38.0541H178.862C178.455 36.8339 177.761 35.8849 176.778 35.207C175.829 34.4953 174.642 34.1394 173.219 34.1394C171.185 34.1394 169.575 34.8851 168.389 36.3764C167.203 37.8338 166.61 39.9183 166.61 42.6298C166.61 45.3074 167.203 47.3918 168.389 48.8831C169.575 50.3406 171.185 51.0693 173.219 51.0693C176.1 51.0693 177.981 49.7813 178.862 47.2054H186.539C185.759 50.2558 184.217 52.6792 181.913 54.4756C179.608 56.272 176.727 57.1702 173.27 57.1702C170.558 57.1702 168.152 56.577 166.05 55.3907C163.949 54.1706 162.305 52.4759 161.119 50.3067C159.932 48.1036 159.339 45.5446 159.339 42.6298Z" fill="#242424"/>
<path d="M189.923 42.5281C189.923 39.681 190.482 37.1559 191.601 34.9528C192.753 32.7498 194.312 31.0551 196.278 29.8688C198.244 28.6825 200.43 28.0894 202.837 28.0894C204.667 28.0894 206.412 28.4961 208.073 29.3095C209.734 30.0891 211.056 31.1398 212.039 32.4617V19.0906H219.258V56.7126H212.039V52.5437C211.158 53.9333 209.92 55.0518 208.327 55.8991C206.734 56.7465 204.887 57.1702 202.786 57.1702C200.413 57.1702 198.244 56.5601 196.278 55.3399C194.312 54.1197 192.753 52.4081 191.601 50.205C190.482 47.968 189.923 45.409 189.923 42.5281ZM212.09 42.6298C212.09 40.9012 211.751 39.4268 211.073 38.2066C210.395 36.9526 209.48 36.0035 208.327 35.3596C207.175 34.6817 205.938 34.3428 204.616 34.3428C203.294 34.3428 202.074 34.6647 200.956 35.3087C199.837 35.9527 198.922 36.9017 198.21 38.1558C197.532 39.376 197.193 40.8334 197.193 42.5281C197.193 44.2228 197.532 45.7141 198.21 47.0021C198.922 48.2561 199.837 49.2221 200.956 49.9C202.108 50.5778 203.328 50.9168 204.616 50.9168C205.938 50.9168 207.175 50.5948 208.327 49.9508C209.48 49.2729 210.395 48.3239 211.073 47.1037C211.751 45.8497 212.09 44.3583 212.09 42.6298Z" fill="#242424"/>
<path d="M238.717 57.1702C236.005 57.1702 233.565 56.577 231.395 55.3907C229.226 54.1706 227.515 52.4589 226.261 50.2558C225.04 48.0528 224.43 45.5107 224.43 42.6298C224.43 39.7488 225.057 37.2068 226.311 35.0037C227.599 32.8006 229.345 31.1059 231.548 29.9196C233.751 28.6995 236.208 28.0894 238.92 28.0894C241.631 28.0894 244.089 28.6995 246.292 29.9196C248.495 31.1059 250.223 32.8006 251.477 35.0037C252.765 37.2068 253.409 39.7488 253.409 42.6298C253.409 45.5107 252.748 48.0528 251.427 50.2558C250.139 52.4589 248.376 54.1706 246.139 55.3907C243.936 56.577 241.462 57.1702 238.717 57.1702ZM238.717 50.9676C240.004 50.9676 241.208 50.6626 242.326 50.0525C243.479 49.4085 244.394 48.4595 245.072 47.2054C245.749 45.9513 246.088 44.4261 246.088 42.6298C246.088 39.9522 245.377 37.9016 243.953 36.4781C242.563 35.0206 240.852 34.2919 238.818 34.2919C236.785 34.2919 235.073 35.0206 233.683 36.4781C232.328 37.9016 231.65 39.9522 231.65 42.6298C231.65 45.3074 232.311 47.3749 233.632 48.8323C234.988 50.2558 236.683 50.9676 238.717 50.9676Z" fill="#242424"/>
<path d="M256.8 42.6298C256.8 39.7149 257.393 37.1729 258.58 35.0037C259.766 32.8006 261.41 31.1059 263.511 29.9196C265.613 28.6995 268.019 28.0894 270.731 28.0894C274.222 28.0894 277.103 28.9706 279.373 30.7331C281.678 32.4617 283.22 34.902 284 38.0541H276.323C275.916 36.8339 275.221 35.8849 274.239 35.207C273.29 34.4953 272.103 34.1394 270.68 34.1394C268.646 34.1394 267.036 34.8851 265.85 36.3764C264.664 37.8338 264.07 39.9183 264.07 42.6298C264.07 45.3074 264.664 47.3918 265.85 48.8831C267.036 50.3406 268.646 51.0693 270.68 51.0693C273.561 51.0693 275.442 49.7813 276.323 47.2054H284C283.22 50.2558 281.678 52.6792 279.373 54.4756C277.069 56.272 274.188 57.1702 270.731 57.1702C268.019 57.1702 265.613 56.577 263.511 55.3907C261.41 54.1706 259.766 52.4759 258.58 50.3067C257.393 48.1036 256.8 45.5446 256.8 42.6298Z" fill="#242424"/>
<defs>
<clipPath id="clip0_1_779">
<rect width="38.0217" height="38.0217" fill="white" transform="scale(2.00572)"/>
</clipPath>
</defs>
</svg>
