<svg width="48" height="48" viewBox="0 0 48 48" fill="none" xmlns="http://www.w3.org/2000/svg">
<path d="M24 30C27.3137 30 30 27.3137 30 24C30 20.6863 27.3137 18 24 18C20.6863 18 18 20.6863 18 24C18 27.3137 20.6863 30 24 30Z" stroke="white" stroke-width="1.5" stroke-miterlimit="10" stroke-linecap="round" stroke-linejoin="round"/>
<path d="M4 25.7608V22.2408C4 20.1608 5.7 18.4409 7.8 18.4409C11.42 18.4409 12.9 15.8808 11.08 12.7408C10.04 10.9408 10.66 8.60085 12.48 7.56085L15.94 5.58085C17.52 4.64085 19.56 5.20085 20.5 6.78085L20.72 7.16085C22.52 10.3008 25.48 10.3008 27.3 7.16085L27.52 6.78085C28.46 5.20085 30.5 4.64085 32.08 5.58085L35.54 7.56085C37.36 8.60085 37.98 10.9408 36.94 12.7408C35.12 15.8808 36.6 18.4409 40.22 18.4409C42.3 18.4409 44.02 20.1408 44.02 22.2408V25.7608C44.02 27.8408 42.32 29.5608 40.22 29.5608C36.6 29.5608 35.12 32.1208 36.94 35.2608C37.98 37.0808 37.36 39.4008 35.54 40.4408L32.08 42.4208C30.5 43.3608 28.46 42.8009 27.52 41.2209L27.3 40.8409C25.5 37.7009 22.54 37.7009 20.72 40.8409L20.5 41.2209C19.56 42.8009 17.52 43.3608 15.94 42.4208L12.48 40.4408C10.66 39.4008 10.04 37.0608 11.08 35.2608C12.9 32.1208 11.42 29.5608 7.8 29.5608C5.7 29.5608 4 27.8408 4 25.7608Z" stroke="white" stroke-width="1.5" stroke-miterlimit="10" stroke-linecap="round" stroke-linejoin="round"/>
</svg>
