<svg width="48" height="48" viewBox="0 0 48 48" fill="none" xmlns="http://www.w3.org/2000/svg">
<path d="M26 18H14" stroke="#FF4C5E" stroke-width="1.5" stroke-linecap="round" stroke-linejoin="round"/>
<path d="M44.0001 21.9403V26.0604C44.0001 27.1604 43.1201 28.0603 42.0001 28.1003H38.08C35.92 28.1003 33.9401 26.5204 33.7601 24.3604C33.6401 23.1004 34.12 21.9203 34.96 21.1003C35.7 20.3403 36.72 19.9004 37.84 19.9004H42.0001C43.1201 19.9404 44.0001 20.8403 44.0001 21.9403Z" stroke="#FF4C5E" stroke-width="1.5" stroke-linecap="round" stroke-linejoin="round"/>
<path d="M34.96 21.1C34.12 21.92 33.64 23.1 33.76 24.36C33.94 26.52 35.92 28.1 38.08 28.1H42V31C42 37 38 41 32 41H14C8 41 4 37 4 31V17C4 11.56 7.28 7.76 12.38 7.12C12.9 7.04 13.44 7 14 7H32C32.52 7 33.02 7.01998 33.5 7.09998C38.66 7.69998 42 11.52 42 17V19.9H37.84C36.72 19.9 35.7 20.34 34.96 21.1Z" stroke="#FF4C5E" stroke-width="1.5" stroke-linecap="round" stroke-linejoin="round"/>
</svg>
